<svg width="114" height="18" viewBox="0 0 114 18" fill="none" xmlns="http://www.w3.org/2000/svg">
<g clip-path="url(#clip0_123905_585)">
<path d="M9 0.713867L11.1 7.21387H18L12.4 11.2139L14.6 17.7139L9 13.7139L3.4 17.7139L5.6 11.2139L0 7.21387H6.9L9 0.713867Z" fill="#83B3D3"/>
</g>
<g clip-path="url(#clip1_123905_585)">
<path d="M33 0.713867L35.1 7.21387H42L36.4 11.2139L38.6 17.7139L33 13.7139L27.4 17.7139L29.6 11.2139L24 7.21387H30.9L33 0.713867Z" fill="#83B3D3"/>
</g>
<g clip-path="url(#clip2_123905_585)">
<path d="M57 0.713867L59.1 7.21387H66L60.4 11.2139L62.6 17.7139L57 13.7139L51.4 17.7139L53.6 11.2139L48 7.21387H54.9L57 0.713867Z" fill="#83B3D3"/>
</g>
<g clip-path="url(#clip3_123905_585)">
<path d="M81 0.713867L83.1 7.21387H90L84.4 11.2139L86.6 17.7139L81 13.7139L75.4 17.7139L77.6 11.2139L72 7.21387H78.9L81 0.713867Z" fill="#83B3D3"/>
</g>
<g clip-path="url(#clip4_123905_585)">
<path d="M105 0.713867L107.1 7.21387H114L108.4 11.2139L110.6 17.7139L105 13.7139L99.4 17.7139L101.6 11.2139L96 7.21387H102.9L105 0.713867Z" fill="#83B3D3"/>
</g>
<defs>
<clipPath id="clip0_123905_585">
<rect width="18" height="17" fill="white" transform="translate(0 0.713867)"/>
</clipPath>
<clipPath id="clip1_123905_585">
<rect width="18" height="17" fill="white" transform="translate(24 0.713867)"/>
</clipPath>
<clipPath id="clip2_123905_585">
<rect width="18" height="17" fill="white" transform="translate(48 0.713867)"/>
</clipPath>
<clipPath id="clip3_123905_585">
<rect width="18" height="17" fill="white" transform="translate(72 0.713867)"/>
</clipPath>
<clipPath id="clip4_123905_585">
<rect width="18" height="17" fill="white" transform="translate(96 0.713867)"/>
</clipPath>
</defs>
</svg>
